<svg version="1.1" xmlns="http://www.w3.org/2000/svg" viewBox="0 0 689.6982421875 553.2900390625001" width="689.6982421875" height="553.2900390625001">
  <!-- svg-source:excalidraw -->
  
  <defs>
    <style class="style-fonts">
      @font-face {
        font-family: "Virgil";
        src: url("https://excalidraw.com/Virgil.woff2");
      }
      @font-face {
        font-family: "Cascadia";
        src: url("https://excalidraw.com/Cascadia.woff2");
      }
    </style>
    
  </defs>
  <g stroke-linecap="round" transform="translate(10 201.24101562500005) rotate(0 139.923828125 27.658203125)"><path d="M13.83 0 M13.83 0 C94.57 1.1, 177.84 -1.21, 266.02 0 M13.83 0 C109.64 0.19, 205.57 0.5, 266.02 0 M266.02 0 C274.66 -0.73, 279.3 5.53, 279.85 13.83 M266.02 0 C275.18 -1.94, 278.43 4.91, 279.85 13.83 M279.85 13.83 C280.15 21.15, 280.25 32.05, 279.85 41.49 M279.85 13.83 C280.77 21.65, 279.2 27.24, 279.85 41.49 M279.85 41.49 C280.54 49.05, 274.25 56.62, 266.02 55.32 M279.85 41.49 C280.58 52.07, 276.82 53.71, 266.02 55.32 M266.02 55.32 C182.23 54.76, 98.18 54.45, 13.83 55.32 M266.02 55.32 C195.73 55.06, 124.23 56.36, 13.83 55.32 M13.83 55.32 C6.11 57.08, 0.35 51.54, 0 41.49 M13.83 55.32 C5.27 54.58, 0.32 48.91, 0 41.49 M0 41.49 C0.89 31.28, 1.26 26.43, 0 13.83 M0 41.49 C-0.25 35.02, 0.98 29.38, 0 13.83 M0 13.83 C0.25 4.86, 5.31 0.95, 13.83 0 M0 13.83 C1.46 2.93, 5.38 1.51, 13.83 0" stroke="#ff0550" stroke-width="1" fill="none"></path></g><g transform="translate(33.923919677734375 216.39921875000005) rotate(0 115.99990844726562 12.5)"><text x="115.99990844726562" y="0" font-family="Virgil, Segoe UI Emoji" font-size="20px" fill="#ff0550" text-anchor="middle" style="white-space: pre;" direction="ltr" dominant-baseline="text-before-edge">Authentication Manager</text></g><g stroke-linecap="round" transform="translate(10 392.4820312500001) rotate(0 139.923828125 27.658203125)"><path d="M13.83 0 M13.83 0 C78.48 0.84, 141.95 1.43, 266.02 0 M13.83 0 C114.99 -1.2, 215.12 -0.07, 266.02 0 M266.02 0 C275.89 -1.81, 280.32 4.69, 279.85 13.83 M266.02 0 C276.4 0.54, 278.27 5.88, 279.85 13.83 M279.85 13.83 C278.91 20.81, 281.21 33.04, 279.85 41.49 M279.85 13.83 C279.68 23, 279.34 30.31, 279.85 41.49 M279.85 41.49 C278.71 52.4, 276.95 55.72, 266.02 55.32 M279.85 41.49 C278.08 51.01, 276.15 54.7, 266.02 55.32 M266.02 55.32 C190.32 56.5, 112.61 56.71, 13.83 55.32 M266.02 55.32 C206.77 54.61, 148.17 54.2, 13.83 55.32 M13.83 55.32 C4.58 56, 1.38 52.37, 0 41.49 M13.83 55.32 C4.85 53.82, -0.22 49.63, 0 41.49 M0 41.49 C-1.5 35.24, 0.42 29.06, 0 13.83 M0 41.49 C-0.27 31.65, 0.13 19.52, 0 13.83 M0 13.83 C0.3 5.88, 5.59 0.33, 13.83 0 M0 13.83 C-1.81 4.73, 6.83 -0.33, 13.83 0" stroke="#ff0550" stroke-width="1" fill="none"></path></g><g transform="translate(35.04393768310547 407.6402343750001) rotate(0 114.87989044189453 12.5)"><text x="114.87989044189453" y="0" font-family="Virgil, Segoe UI Emoji" font-size="20px" fill="#ff0550" text-anchor="middle" style="white-space: pre;" direction="ltr" dominant-baseline="text-before-edge">Authentication Provider</text></g><g stroke-linecap="round" transform="translate(10 10) rotate(0 139.923828125 27.658203125)"><path d="M13.83 0 M13.83 0 C72.7 0.74, 128.01 0.3, 266.02 0 M13.83 0 C88.24 -1.25, 161.6 -2.09, 266.02 0 M266.02 0 C275.75 1.06, 280.99 4.1, 279.85 13.83 M266.02 0 C276.69 0.89, 282.06 2.68, 279.85 13.83 M279.85 13.83 C280.3 20.45, 278.15 28.78, 279.85 41.49 M279.85 13.83 C280.19 20.41, 279.26 28.06, 279.85 41.49 M279.85 41.49 C280.43 52.35, 275.33 56.57, 266.02 55.32 M279.85 41.49 C279.01 49.83, 274.13 56.31, 266.02 55.32 M266.02 55.32 C199.47 54.51, 135.7 56.66, 13.83 55.32 M266.02 55.32 C201.95 54.21, 136.81 54.19, 13.83 55.32 M13.83 55.32 C6.11 56.29, 1.12 49.45, 0 41.49 M13.83 55.32 C5.33 53.32, -0.6 51.84, 0 41.49 M0 41.49 C1.26 36.66, -0.19 28.62, 0 13.83 M0 41.49 C-1.05 34.02, 0.29 27.54, 0 13.83 M0 13.83 C-1.59 6.49, 6.23 0.47, 13.83 0 M0 13.83 C0.61 6.35, 6.74 1.05, 13.83 0" stroke="#ff0550" stroke-width="1" fill="none"></path></g><g transform="translate(48.3939208984375 25.158203125) rotate(0 101.5299072265625 12.5)"><text x="101.5299072265625" y="0" font-family="Virgil, Segoe UI Emoji" font-size="20px" fill="#ff0550" text-anchor="middle" style="white-space: pre;" direction="ltr" dominant-baseline="text-before-edge">Authentication Filter</text></g><g stroke-linecap="round" transform="translate(399.8505859375 10) rotate(0 139.923828125 27.658203125)"><path d="M13.83 0 M13.83 0 C87.01 1.58, 160.56 1.4, 266.02 0 M13.83 0 C84.55 -0.8, 154.3 -1.07, 266.02 0 M266.02 0 C273.92 0.26, 279.43 4.12, 279.85 13.83 M266.02 0 C276.12 -1.71, 279.56 2.58, 279.85 13.83 M279.85 13.83 C278.41 23.56, 280.67 34.17, 279.85 41.49 M279.85 13.83 C280.65 19.74, 280.52 26.79, 279.85 41.49 M279.85 41.49 C281.4 52.68, 276.15 53.42, 266.02 55.32 M279.85 41.49 C280.01 50.06, 274.6 56.45, 266.02 55.32 M266.02 55.32 C185.67 53.08, 103.42 53.01, 13.83 55.32 M266.02 55.32 C179.34 54.13, 92.49 55.58, 13.83 55.32 M13.83 55.32 C4.97 53.58, 1.62 50.5, 0 41.49 M13.83 55.32 C3.82 57.52, 1.17 50.69, 0 41.49 M0 41.49 C-0.26 32.17, -0.99 27.26, 0 13.83 M0 41.49 C-0.16 31.93, -1.15 21.57, 0 13.83 M0 13.83 C0.21 3.14, 6.01 0.39, 13.83 0 M0 13.83 C-2.17 4.14, 4.62 0.16, 13.83 0" stroke="#ff0550" stroke-width="1" fill="none"></path></g><g transform="translate(456.6544952392578 25.158203125) rotate(0 83.11991882324219 12.5)"><text x="83.11991882324219" y="0" font-family="Virgil, Segoe UI Emoji" font-size="20px" fill="#ff0550" text-anchor="middle" style="white-space: pre;" direction="ltr" dominant-baseline="text-before-edge">Security Context</text></g><g stroke-linecap="round" transform="translate(399.8505859375 296.73261718750007) rotate(0 139.923828125 27.658203125)"><path d="M13.83 0 M13.83 0 C104.47 0.68, 197.98 3.33, 266.02 0 M13.83 0 C111.8 -1.69, 212.01 -1.35, 266.02 0 M266.02 0 C275.16 1.6, 278.97 3.83, 279.85 13.83 M266.02 0 C273.4 -2.14, 281.89 4.24, 279.85 13.83 M279.85 13.83 C278.82 21.46, 280.47 31.64, 279.85 41.49 M279.85 13.83 C278.92 22.76, 280.23 32.64, 279.85 41.49 M279.85 41.49 C280.13 49.22, 273.79 55.96, 266.02 55.32 M279.85 41.49 C279.54 51.36, 273.48 56.1, 266.02 55.32 M266.02 55.32 C183.3 57.9, 99.07 57.89, 13.83 55.32 M266.02 55.32 C186.95 57.82, 107.07 56.59, 13.83 55.32 M13.83 55.32 C4.39 57.23, -1.1 51.55, 0 41.49 M13.83 55.32 C2.36 54.93, 1.37 48.62, 0 41.49 M0 41.49 C-0.06 31.13, -0.38 19.19, 0 13.83 M0 41.49 C-0.92 33.76, 0.24 27.21, 0 13.83 M0 13.83 C-0.6 3.99, 4.75 0.36, 13.83 0 M0 13.83 C-0.11 2.74, 5.35 1.12, 13.83 0" stroke="#ff0550" stroke-width="1" fill="none"></path></g><g transform="translate(437.8345031738281 311.89082031250007) rotate(0 101.93991088867188 12.5)"><text x="101.93991088867188" y="0" font-family="Virgil, Segoe UI Emoji" font-size="20px" fill="#ff0550" text-anchor="middle" style="white-space: pre;" direction="ltr" dominant-baseline="text-before-edge">User Details Service</text></g><g stroke-linecap="round" transform="translate(399.8505859375 487.9736328125001) rotate(0 139.923828125 27.658203125)"><path d="M13.83 0 M13.83 0 C94.07 -0.39, 177.54 1.17, 266.02 0 M13.83 0 C93.35 1.37, 172.59 0.86, 266.02 0 M266.02 0 C275.92 0.61, 280.21 5.96, 279.85 13.83 M266.02 0 C276.14 1.69, 279.51 6.28, 279.85 13.83 M279.85 13.83 C281 23.71, 279.89 29.42, 279.85 41.49 M279.85 13.83 C280.54 20.85, 279.95 30.42, 279.85 41.49 M279.85 41.49 C278.04 52.25, 275.38 57.07, 266.02 55.32 M279.85 41.49 C279.8 50.79, 274.83 53.67, 266.02 55.32 M266.02 55.32 C195.27 54.22, 127.6 55.96, 13.83 55.32 M266.02 55.32 C198.06 55.42, 129.14 55.72, 13.83 55.32 M13.83 55.32 C5.58 56.94, 0.53 52.34, 0 41.49 M13.83 55.32 C3.55 54.27, -0.97 48.78, 0 41.49 M0 41.49 C-0.4 32.29, -0.45 22.49, 0 13.83 M0 41.49 C0.82 33.97, 0.68 27.19, 0 13.83 M0 13.83 C0.79 3.71, 4.98 1.68, 13.83 0 M0 13.83 C1.73 3.72, 6.41 1.14, 13.83 0" stroke="#ff0550" stroke-width="1" fill="none"></path></g><g transform="translate(451.58448791503906 503.1318359375001) rotate(0 88.18992614746094 12.5)"><text x="88.18992614746094" y="0" font-family="Virgil, Segoe UI Emoji" font-size="20px" fill="#ff0550" text-anchor="middle" style="white-space: pre;" direction="ltr" dominant-baseline="text-before-edge">Password Encoder</text></g><g stroke-linecap="round"><g transform="translate(297.23193359375 36.8154296875) rotate(0 48.00130779962052 0.5437941054753566)"><path d="M-0.45 -0.8 C15.17 -0.76, 78.25 0.19, 94.32 0.18 M1.52 1.4 C17.44 1.66, 80.8 2.04, 96.45 1.82" stroke="#ff0550" stroke-width="1" fill="none"></path></g><g transform="translate(297.23193359375 36.8154296875) rotate(0 48.00130779962052 0.5437941054753566)"><path d="M96.12 1.54 L84.86 9.49 L83.76 -3.41 L96.52 3.23" stroke="none" stroke-width="0" fill="#ff0550" fill-rule="evenodd"></path><path d="M95.45 0.44 C91.94 4.65, 85.92 6.39, 82.83 7.89 M96.3 2.1 C92.36 2.98, 88.9 5.65, 82.75 8.28 M81.79 7.91 C82.64 4.22, 83.39 1.95, 82.47 -4.16 M82.55 8.53 C83.24 4.78, 82.7 0.35, 82.99 -4.64 M83.15 -4.83 C87.21 -1.22, 92.42 -0.46, 97.52 1.34 M82.56 -4.23 C87.81 -3.09, 92.43 -0.48, 97.19 1.85 M96.45 1.82 C96.45 1.82, 96.45 1.82, 96.45 1.82 M96.45 1.82 C96.45 1.82, 96.45 1.82, 96.45 1.82" stroke="#ff0550" stroke-width="1" fill="none"></path></g></g><mask></mask><g stroke-linecap="round"><g transform="translate(56.05615234375 72.9326171875) rotate(0 0.14104417014866044 59.541965371482064)"><path d="M0.19 0.52 C0.18 20.33, -0.79 98.26, -0.83 117.73 M-1.17 -0.25 C-0.73 19.87, 1.39 99.53, 1.45 119.33" stroke="#ff0550" stroke-width="1" fill="none"></path></g><g transform="translate(56.05615234375 72.9326171875) rotate(0 0.14104417014866044 59.541965371482064)"><path d="M2.75 120.25 L-4.03 105.92 L8.98 106.21 L2.97 121.15" stroke="none" stroke-width="0" fill="#ff0550" fill-rule="evenodd"></path><path d="M2.1 118.3 C0.21 116.15, -1.79 112.63, -5.3 105.3 M0.93 119.17 C-0.01 115.41, -2.17 111.37, -5.13 106.31 M-5.96 106.37 C-2.38 105.45, 0.67 105.65, 8.46 106.56 M-4.85 105.78 C-2.45 105.85, 1.04 105.75, 7.44 105.44 M8.79 106.6 C5.56 111.1, 3.14 115.06, 2.78 120.1 M6.88 105.85 C5.77 109.99, 4.43 113.28, 0.78 118.81 M1.45 119.33 C1.45 119.33, 1.45 119.33, 1.45 119.33 M1.45 119.33 C1.45 119.33, 1.45 119.33, 1.45 119.33" stroke="#ff0550" stroke-width="1" fill="none"></path></g></g><mask></mask><g stroke-linecap="round"><g transform="translate(56.24365234375 267.5576171875) rotate(0 1.2371603563986753 58.1451418452896)"><path d="M-0.5 -0.58 C-0.38 18.9, 0.6 96.05, 0.84 115.75 M1.44 1.74 C1.9 21.44, 2.67 97.85, 2.98 116.87" stroke="#ff0550" stroke-width="1" fill="none"></path></g><g transform="translate(56.24365234375 267.5576171875) rotate(0 1.2371603563986753 58.1451418452896)"><path d="M4.89 115.42 L-3.17 102.93 L7.45 102.44 L3.16 116.68" stroke="none" stroke-width="0" fill="#ff0550" fill-rule="evenodd"></path><path d="M2.26 115.5 C0.09 111.38, 0.4 107.21, -3.84 104.02 M2.41 117.37 C2.13 114.46, -0.56 110.92, -2.9 102.94 M-3.84 103.52 C-0.33 102.55, 2.92 102.15, 9.51 103.29 M-3.51 103.73 C0.15 103.51, 4.35 102.6, 8.8 102.78 M8.79 102.28 C7.2 107.2, 4.61 110.26, 4.11 117.19 M9.67 102.74 C7.52 106.94, 5.79 112.4, 3.46 117.59 M2.98 116.87 C2.98 116.87, 2.98 116.87, 2.98 116.87 M2.98 116.87 C2.98 116.87, 2.98 116.87, 2.98 116.87" stroke="#ff0550" stroke-width="1" fill="none"></path></g></g><mask></mask><g stroke-linecap="round"><g transform="translate(234.24755859375 382.3427734375) rotate(0 0.7916621491866067 -56.71456962488594)"><path d="M1.16 0.54 C1.44 -18.28, 1.11 -95, 0.97 -113.97 M0.31 -0.22 C0.58 -18.8, 0.63 -94.13, 0.53 -112.75" stroke="#ff0550" stroke-width="1" fill="none"></path></g><g transform="translate(234.24755859375 382.3427734375) rotate(0 0.7916621491866067 -56.71456962488594)"><path d="M0.05 -112.2 L6.56 -101.13 L-7.11 -99.86 L0.57 -112.81" stroke="none" stroke-width="0" fill="#ff0550" fill-rule="evenodd"></path><path d="M1.21 -111.54 C1.2 -109.13, 3.6 -105.41, 5.63 -99.34 M-0.12 -112.45 C2.17 -109.59, 3.59 -106.55, 6.57 -99.46 M5.83 -99.37 C3.63 -100.02, 0.53 -98.48, -5.98 -98.07 M7.41 -99.63 C1.8 -99.51, -2.72 -99.66, -5.71 -99.37 M-5.38 -99.35 C-3.11 -100.93, -2.56 -104.09, -0.33 -112.86 M-5.78 -99.05 C-3.57 -102.74, -2.19 -107.59, 0.64 -112.26 M0.53 -112.75 C0.53 -112.75, 0.53 -112.75, 0.53 -112.75 M0.53 -112.75 C0.53 -112.75, 0.53 -112.75, 0.53 -112.75" stroke="#ff0550" stroke-width="1" fill="none"></path></g></g><mask></mask><g stroke-linecap="round"><g transform="translate(235.00927734375 194.0849609375) rotate(0 -0.6447301218634038 -60.48351308964192)"><path d="M0.45 1.07 C0.37 -19.3, -0.47 -101.62, -0.52 -122.04 M-0.77 0.58 C-1.06 -19.58, -1.79 -99.77, -1.74 -120.42" stroke="#ff0550" stroke-width="1" fill="none"></path></g><g transform="translate(235.00927734375 194.0849609375) rotate(0 -0.6447301218634038 -60.48351308964192)"><path d="M-2.44 -119.62 L5.16 -106.52 L-7.76 -106.91 L-1.92 -118.59" stroke="none" stroke-width="0" fill="#ff0550" fill-rule="evenodd"></path><path d="M-0.41 -121.07 C0.39 -116.15, 3.11 -111.84, 5.03 -106.9 M-2.04 -120.47 C0.14 -117.08, 0.25 -114.85, 4.44 -106.94 M5.3 -107.52 C-0.97 -107.72, -5.1 -107.11, -7.67 -107.01 M4.67 -106.87 C1.89 -106.34, -0.99 -106.49, -7.61 -106.54 M-7.12 -106.25 C-5.41 -110.81, -2.84 -115.26, -0.45 -119.66 M-8.53 -106.74 C-6.88 -109.22, -5.36 -111.99, -1.97 -120.32 M-1.74 -120.42 C-1.74 -120.42, -1.74 -120.42, -1.74 -120.42 M-1.74 -120.42 C-1.74 -120.42, -1.74 -120.42, -1.74 -120.42" stroke="#ff0550" stroke-width="1" fill="none"></path></g></g><mask></mask><g stroke-linecap="round"><g transform="translate(300.71240234375 421.1943359375) rotate(0 45.62893139459197 -46.97452665306628)"><path d="M-0.94 -1.08 C14.31 -16.36, 76.52 -77.62, 92.2 -92.87" stroke="#ff0550" stroke-width="1.5" fill="none" stroke-dasharray="1.5 7"></path></g><g transform="translate(300.71240234375 421.1943359375) rotate(0 45.62893139459197 -46.97452665306628)"><path d="M93.64 -91.45 L88.31 -79.29 L76.55 -88.71 L90.25 -92.13" stroke="none" stroke-width="0" fill="#ff0550" fill-rule="evenodd"></path><path d="M90.85 -93.96 C90.43 -87.79, 88.94 -83.57, 87.96 -77.86 M87.01 -77.87 C82.63 -81.32, 81.8 -84.02, 78.54 -86.91 M79.29 -87.5 C80.85 -90.48, 85.91 -91.19, 90.76 -92.45 M92.2 -92.87 C92.2 -92.87, 92.2 -92.87, 92.2 -92.87" stroke="#ff0550" stroke-width="1.5" fill="none"></path></g></g><mask></mask><g stroke-linecap="round"><g transform="translate(303.57568359375 421.1630859375) rotate(0 44.42778908275068 44.62868845798073)"><path d="M0.12 -0.3 C14.95 14.44, 73.97 74.41, 88.74 89.55" stroke="#ff0550" stroke-width="1.5" fill="none" stroke-dasharray="1.5 7"></path></g><g transform="translate(303.57568359375 421.1630859375) rotate(0 44.42778908275068 44.62868845798073)"><path d="M90.03 89.34 L72.87 84.96 L85.59 73.54 L89.72 91.12" stroke="none" stroke-width="0" fill="#ff0550" fill-rule="evenodd"></path><path d="M88.37 88.23 C84.46 86.78, 81.82 86.79, 75.77 84.19 M75.01 83.17 C78.63 82.15, 81.58 78.4, 84.91 75.13 M84.25 75.46 C85.56 78.42, 85.7 81.61, 89.49 89.18 M88.74 89.55 C88.74 89.55, 88.74 89.55, 88.74 89.55" stroke="#ff0550" stroke-width="1.5" fill="none"></path></g></g><mask></mask></svg>