<svg version="1.1" xmlns="http://www.w3.org/2000/svg" viewBox="0 0 1493.3076171875 669.7325826825694" width="1493.3076171875" height="669.7325826825694">
  <!-- svg-source:excalidraw -->
  
  <defs>
    <style class="style-fonts">
      @font-face {
        font-family: "Virgil";
        src: url("https://excalidraw.com/Virgil.woff2");
      }
      @font-face {
        font-family: "Cascadia";
        src: url("https://excalidraw.com/Cascadia.woff2");
      }
    </style>
    
  </defs>
  <g stroke-linecap="round" transform="translate(10 317.6835592450693) rotate(0 139.923828125 27.658203125)"><path d="M13.83 0 M13.83 0 C94.57 1.1, 177.84 -1.21, 266.02 0 M13.83 0 C109.64 0.19, 205.57 0.5, 266.02 0 M266.02 0 C274.66 -0.73, 279.3 5.53, 279.85 13.83 M266.02 0 C275.18 -1.94, 278.43 4.91, 279.85 13.83 M279.85 13.83 C280.15 21.15, 280.25 32.05, 279.85 41.49 M279.85 13.83 C280.77 21.65, 279.2 27.24, 279.85 41.49 M279.85 41.49 C280.54 49.05, 274.25 56.62, 266.02 55.32 M279.85 41.49 C280.58 52.07, 276.82 53.71, 266.02 55.32 M266.02 55.32 C182.23 54.76, 98.18 54.45, 13.83 55.32 M266.02 55.32 C195.73 55.06, 124.23 56.36, 13.83 55.32 M13.83 55.32 C6.11 57.08, 0.35 51.54, 0 41.49 M13.83 55.32 C5.27 54.58, 0.32 48.91, 0 41.49 M0 41.49 C0.89 31.28, 1.26 26.43, 0 13.83 M0 41.49 C-0.25 35.02, 0.98 29.38, 0 13.83 M0 13.83 C0.25 4.86, 5.31 0.95, 13.83 0 M0 13.83 C1.46 2.93, 5.38 1.51, 13.83 0" stroke="#ff0550" stroke-width="1" fill="none"></path></g><g transform="translate(33.923919677734375 332.8417623700693) rotate(0 115.99990844726562 12.5)"><text x="115.99990844726562" y="0" font-family="Virgil, Segoe UI Emoji" font-size="20px" fill="#ff0550" text-anchor="middle" style="white-space: pre;" direction="ltr" dominant-baseline="text-before-edge">Authentication Manager</text></g><g stroke-linecap="round" transform="translate(10 508.92457487006936) rotate(0 139.923828125 27.658203125)"><path d="M13.83 0 M13.83 0 C78.48 0.84, 141.95 1.43, 266.02 0 M13.83 0 C114.99 -1.2, 215.12 -0.07, 266.02 0 M266.02 0 C275.89 -1.81, 280.32 4.69, 279.85 13.83 M266.02 0 C276.4 0.54, 278.27 5.88, 279.85 13.83 M279.85 13.83 C278.91 20.81, 281.21 33.04, 279.85 41.49 M279.85 13.83 C279.68 23, 279.34 30.31, 279.85 41.49 M279.85 41.49 C278.71 52.4, 276.95 55.72, 266.02 55.32 M279.85 41.49 C278.08 51.01, 276.15 54.7, 266.02 55.32 M266.02 55.32 C190.32 56.5, 112.61 56.71, 13.83 55.32 M266.02 55.32 C206.77 54.61, 148.17 54.2, 13.83 55.32 M13.83 55.32 C4.58 56, 1.38 52.37, 0 41.49 M13.83 55.32 C4.85 53.82, -0.22 49.63, 0 41.49 M0 41.49 C-1.5 35.24, 0.42 29.06, 0 13.83 M0 41.49 C-0.27 31.65, 0.13 19.52, 0 13.83 M0 13.83 C0.3 5.88, 5.59 0.33, 13.83 0 M0 13.83 C-1.81 4.73, 6.83 -0.33, 13.83 0" stroke="#ff0550" stroke-width="1" fill="none"></path></g><g transform="translate(20.033950805664062 524.0827779950694) rotate(0 129.88987731933594 12.5)"><text x="129.88987731933594" y="0" font-family="Virgil, Segoe UI Emoji" font-size="20px" fill="#ff0550" text-anchor="middle" style="white-space: pre;" direction="ltr" dominant-baseline="text-before-edge">DaoAuthenticationProvider</text></g><g stroke-linecap="round" transform="translate(10 126.4425436200693) rotate(0 139.923828125 27.658203125)"><path d="M13.83 0 M13.83 0 C72.7 0.74, 128.01 0.3, 266.02 0 M13.83 0 C88.24 -1.25, 161.6 -2.09, 266.02 0 M266.02 0 C275.75 1.06, 280.99 4.1, 279.85 13.83 M266.02 0 C276.69 0.89, 282.06 2.68, 279.85 13.83 M279.85 13.83 C280.3 20.45, 278.15 28.78, 279.85 41.49 M279.85 13.83 C280.19 20.41, 279.26 28.06, 279.85 41.49 M279.85 41.49 C280.43 52.35, 275.33 56.57, 266.02 55.32 M279.85 41.49 C279.01 49.83, 274.13 56.31, 266.02 55.32 M266.02 55.32 C199.47 54.51, 135.7 56.66, 13.83 55.32 M266.02 55.32 C201.95 54.21, 136.81 54.19, 13.83 55.32 M13.83 55.32 C6.11 56.29, 1.12 49.45, 0 41.49 M13.83 55.32 C5.33 53.32, -0.6 51.84, 0 41.49 M0 41.49 C1.26 36.66, -0.19 28.62, 0 13.83 M0 41.49 C-1.05 34.02, 0.29 27.54, 0 13.83 M0 13.83 C-1.59 6.49, 6.23 0.47, 13.83 0 M0 13.83 C0.61 6.35, 6.74 1.05, 13.83 0" stroke="#ff0550" stroke-width="1" fill="none"></path></g><g transform="translate(26.813941955566406 141.6007467450693) rotate(0 123.1098861694336 12.5)"><text x="123.1098861694336" y="0" font-family="Virgil, Segoe UI Emoji" font-size="20px" fill="#ff0550" text-anchor="middle" style="white-space: pre;" direction="ltr" dominant-baseline="text-before-edge">BasicAuthenticationFilter</text></g><g stroke-linecap="round" transform="translate(399.8505859375 126.4425436200693) rotate(0 139.923828125 27.658203125)"><path d="M13.83 0 M13.83 0 C87.01 1.58, 160.56 1.4, 266.02 0 M13.83 0 C84.55 -0.8, 154.3 -1.07, 266.02 0 M266.02 0 C273.92 0.26, 279.43 4.12, 279.85 13.83 M266.02 0 C276.12 -1.71, 279.56 2.58, 279.85 13.83 M279.85 13.83 C278.41 23.56, 280.67 34.17, 279.85 41.49 M279.85 13.83 C280.65 19.74, 280.52 26.79, 279.85 41.49 M279.85 41.49 C281.4 52.68, 276.15 53.42, 266.02 55.32 M279.85 41.49 C280.01 50.06, 274.6 56.45, 266.02 55.32 M266.02 55.32 C185.67 53.08, 103.42 53.01, 13.83 55.32 M266.02 55.32 C179.34 54.13, 92.49 55.58, 13.83 55.32 M13.83 55.32 C4.97 53.58, 1.62 50.5, 0 41.49 M13.83 55.32 C3.82 57.52, 1.17 50.69, 0 41.49 M0 41.49 C-0.26 32.17, -0.99 27.26, 0 13.83 M0 41.49 C-0.16 31.93, -1.15 21.57, 0 13.83 M0 13.83 C0.21 3.14, 6.01 0.39, 13.83 0 M0 13.83 C-2.17 4.14, 4.62 0.16, 13.83 0" stroke="#ff0550" stroke-width="1" fill="none"></path></g><g transform="translate(456.6544952392578 141.6007467450693) rotate(0 83.11991882324219 12.5)"><text x="83.11991882324219" y="0" font-family="Virgil, Segoe UI Emoji" font-size="20px" fill="#ff0550" text-anchor="middle" style="white-space: pre;" direction="ltr" dominant-baseline="text-before-edge">Security Context</text></g><g stroke-linecap="round" transform="translate(399.8505859375 413.17516080756934) rotate(0 139.923828125 27.658203125)"><path d="M13.83 0 M13.83 0 C104.47 0.68, 197.98 3.33, 266.02 0 M13.83 0 C111.8 -1.69, 212.01 -1.35, 266.02 0 M266.02 0 C275.16 1.6, 278.97 3.83, 279.85 13.83 M266.02 0 C273.4 -2.14, 281.89 4.24, 279.85 13.83 M279.85 13.83 C278.82 21.46, 280.47 31.64, 279.85 41.49 M279.85 13.83 C278.92 22.76, 280.23 32.64, 279.85 41.49 M279.85 41.49 C280.13 49.22, 273.79 55.96, 266.02 55.32 M279.85 41.49 C279.54 51.36, 273.48 56.1, 266.02 55.32 M266.02 55.32 C183.3 57.9, 99.07 57.89, 13.83 55.32 M266.02 55.32 C186.95 57.82, 107.07 56.59, 13.83 55.32 M13.83 55.32 C4.39 57.23, -1.1 51.55, 0 41.49 M13.83 55.32 C2.36 54.93, 1.37 48.62, 0 41.49 M0 41.49 C-0.06 31.13, -0.38 19.19, 0 13.83 M0 41.49 C-0.92 33.76, 0.24 27.21, 0 13.83 M0 13.83 C-0.6 3.99, 4.75 0.36, 13.83 0 M0 13.83 C-0.11 2.74, 5.35 1.12, 13.83 0" stroke="#ff0550" stroke-width="1" fill="none"></path></g><g transform="translate(483.6744689941406 428.33336393256934) rotate(0 56.099945068359375 12.5)"><text x="56.099945068359375" y="0" font-family="Virgil, Segoe UI Emoji" font-size="20px" fill="#ff0550" text-anchor="middle" style="white-space: pre;" direction="ltr" dominant-baseline="text-before-edge">UserService</text></g><g stroke-linecap="round" transform="translate(399.8505859375 604.4161764325694) rotate(0 139.923828125 27.658203125)"><path d="M13.83 0 M13.83 0 C94.07 -0.39, 177.54 1.17, 266.02 0 M13.83 0 C93.35 1.37, 172.59 0.86, 266.02 0 M266.02 0 C275.92 0.61, 280.21 5.96, 279.85 13.83 M266.02 0 C276.14 1.69, 279.51 6.28, 279.85 13.83 M279.85 13.83 C281 23.71, 279.89 29.42, 279.85 41.49 M279.85 13.83 C280.54 20.85, 279.95 30.42, 279.85 41.49 M279.85 41.49 C278.04 52.25, 275.38 57.07, 266.02 55.32 M279.85 41.49 C279.8 50.79, 274.83 53.67, 266.02 55.32 M266.02 55.32 C195.27 54.22, 127.6 55.96, 13.83 55.32 M266.02 55.32 C198.06 55.42, 129.14 55.72, 13.83 55.32 M13.83 55.32 C5.58 56.94, 0.53 52.34, 0 41.49 M13.83 55.32 C3.55 54.27, -0.97 48.78, 0 41.49 M0 41.49 C-0.4 32.29, -0.45 22.49, 0 13.83 M0 41.49 C0.82 33.97, 0.68 27.19, 0 13.83 M0 13.83 C0.79 3.71, 4.98 1.68, 13.83 0 M0 13.83 C1.73 3.72, 6.41 1.14, 13.83 0" stroke="#ff0550" stroke-width="1" fill="none"></path></g><g transform="translate(423.3045196533203 619.5743795575694) rotate(0 116.46989440917969 12.5)"><text x="116.46989440917969" y="0" font-family="Virgil, Segoe UI Emoji" font-size="20px" fill="#ff0550" text-anchor="middle" style="white-space: pre;" direction="ltr" dominant-baseline="text-before-edge">BCryptPasswordEncoder</text></g><g stroke-linecap="round"><g transform="translate(297.23193359375 153.2579733075693) rotate(0 48.00130779962052 0.5437941054753566)"><path d="M-0.45 -0.8 C15.17 -0.76, 78.25 0.19, 94.32 0.18 M1.52 1.4 C17.44 1.66, 80.8 2.04, 96.45 1.82" stroke="#ff0550" stroke-width="1" fill="none"></path></g><g transform="translate(297.23193359375 153.2579733075693) rotate(0 48.00130779962052 0.5437941054753566)"><path d="M96.12 1.54 L84.86 9.49 L83.76 -3.41 L96.52 3.23" stroke="none" stroke-width="0" fill="#ff0550" fill-rule="evenodd"></path><path d="M95.45 0.44 C91.94 4.65, 85.92 6.39, 82.83 7.89 M96.3 2.1 C92.36 2.98, 88.9 5.65, 82.75 8.28 M81.79 7.91 C82.64 4.22, 83.39 1.95, 82.47 -4.16 M82.55 8.53 C83.24 4.78, 82.7 0.35, 82.99 -4.64 M83.15 -4.83 C87.21 -1.22, 92.42 -0.46, 97.52 1.34 M82.56 -4.23 C87.81 -3.09, 92.43 -0.48, 97.19 1.85 M96.45 1.82 C96.45 1.82, 96.45 1.82, 96.45 1.82 M96.45 1.82 C96.45 1.82, 96.45 1.82, 96.45 1.82" stroke="#ff0550" stroke-width="1" fill="none"></path></g></g><mask></mask><g stroke-linecap="round"><g transform="translate(56.05615234375 189.3751608075693) rotate(0 0.14104417014866044 59.541965371482064)"><path d="M0.19 0.52 C0.18 20.33, -0.79 98.26, -0.83 117.73 M-1.17 -0.25 C-0.73 19.87, 1.39 99.53, 1.45 119.33" stroke="#ff0550" stroke-width="1" fill="none"></path></g><g transform="translate(56.05615234375 189.3751608075693) rotate(0 0.14104417014866044 59.541965371482064)"><path d="M2.75 120.25 L-4.03 105.92 L8.98 106.21 L2.97 121.15" stroke="none" stroke-width="0" fill="#ff0550" fill-rule="evenodd"></path><path d="M2.1 118.3 C0.21 116.15, -1.79 112.63, -5.3 105.3 M0.93 119.17 C-0.01 115.41, -2.17 111.37, -5.13 106.31 M-5.96 106.37 C-2.38 105.45, 0.67 105.65, 8.46 106.56 M-4.85 105.78 C-2.45 105.85, 1.04 105.75, 7.44 105.44 M8.79 106.6 C5.56 111.1, 3.14 115.06, 2.78 120.1 M6.88 105.85 C5.77 109.99, 4.43 113.28, 0.78 118.81 M1.45 119.33 C1.45 119.33, 1.45 119.33, 1.45 119.33 M1.45 119.33 C1.45 119.33, 1.45 119.33, 1.45 119.33" stroke="#ff0550" stroke-width="1" fill="none"></path></g></g><mask></mask><g stroke-linecap="round"><g transform="translate(56.24365234375 384.0001608075693) rotate(0 1.2371603563986753 58.1451418452896)"><path d="M-0.5 -0.58 C-0.38 18.9, 0.6 96.05, 0.84 115.75 M1.44 1.74 C1.9 21.44, 2.67 97.85, 2.98 116.87" stroke="#ff0550" stroke-width="1" fill="none"></path></g><g transform="translate(56.24365234375 384.0001608075693) rotate(0 1.2371603563986753 58.1451418452896)"><path d="M4.89 115.42 L-3.17 102.93 L7.45 102.44 L3.16 116.68" stroke="none" stroke-width="0" fill="#ff0550" fill-rule="evenodd"></path><path d="M2.26 115.5 C0.09 111.38, 0.4 107.21, -3.84 104.02 M2.41 117.37 C2.13 114.46, -0.56 110.92, -2.9 102.94 M-3.84 103.52 C-0.33 102.55, 2.92 102.15, 9.51 103.29 M-3.51 103.73 C0.15 103.51, 4.35 102.6, 8.8 102.78 M8.79 102.28 C7.2 107.2, 4.61 110.26, 4.11 117.19 M9.67 102.74 C7.52 106.94, 5.79 112.4, 3.46 117.59 M2.98 116.87 C2.98 116.87, 2.98 116.87, 2.98 116.87 M2.98 116.87 C2.98 116.87, 2.98 116.87, 2.98 116.87" stroke="#ff0550" stroke-width="1" fill="none"></path></g></g><mask></mask><g stroke-linecap="round"><g transform="translate(234.24755859375 498.7853170575693) rotate(0 0.7916621491866067 -56.71456962488594)"><path d="M1.16 0.54 C1.44 -18.28, 1.11 -95, 0.97 -113.97 M0.31 -0.22 C0.58 -18.8, 0.63 -94.13, 0.53 -112.75" stroke="#ff0550" stroke-width="1" fill="none"></path></g><g transform="translate(234.24755859375 498.7853170575693) rotate(0 0.7916621491866067 -56.71456962488594)"><path d="M0.05 -112.2 L6.56 -101.13 L-7.11 -99.86 L0.57 -112.81" stroke="none" stroke-width="0" fill="#ff0550" fill-rule="evenodd"></path><path d="M1.21 -111.54 C1.2 -109.13, 3.6 -105.41, 5.63 -99.34 M-0.12 -112.45 C2.17 -109.59, 3.59 -106.55, 6.57 -99.46 M5.83 -99.37 C3.63 -100.02, 0.53 -98.48, -5.98 -98.07 M7.41 -99.63 C1.8 -99.51, -2.72 -99.66, -5.71 -99.37 M-5.38 -99.35 C-3.11 -100.93, -2.56 -104.09, -0.33 -112.86 M-5.78 -99.05 C-3.57 -102.74, -2.19 -107.59, 0.64 -112.26 M0.53 -112.75 C0.53 -112.75, 0.53 -112.75, 0.53 -112.75 M0.53 -112.75 C0.53 -112.75, 0.53 -112.75, 0.53 -112.75" stroke="#ff0550" stroke-width="1" fill="none"></path></g></g><mask></mask><g stroke-linecap="round"><g transform="translate(235.00927734375 310.5275045575693) rotate(0 -0.6447301218634038 -60.48351308964192)"><path d="M0.45 1.07 C0.37 -19.3, -0.47 -101.62, -0.52 -122.04 M-0.77 0.58 C-1.06 -19.58, -1.79 -99.77, -1.74 -120.42" stroke="#ff0550" stroke-width="1" fill="none"></path></g><g transform="translate(235.00927734375 310.5275045575693) rotate(0 -0.6447301218634038 -60.48351308964192)"><path d="M-2.44 -119.62 L5.16 -106.52 L-7.76 -106.91 L-1.92 -118.59" stroke="none" stroke-width="0" fill="#ff0550" fill-rule="evenodd"></path><path d="M-0.41 -121.07 C0.39 -116.15, 3.11 -111.84, 5.03 -106.9 M-2.04 -120.47 C0.14 -117.08, 0.25 -114.85, 4.44 -106.94 M5.3 -107.52 C-0.97 -107.72, -5.1 -107.11, -7.67 -107.01 M4.67 -106.87 C1.89 -106.34, -0.99 -106.49, -7.61 -106.54 M-7.12 -106.25 C-5.41 -110.81, -2.84 -115.26, -0.45 -119.66 M-8.53 -106.74 C-6.88 -109.22, -5.36 -111.99, -1.97 -120.32 M-1.74 -120.42 C-1.74 -120.42, -1.74 -120.42, -1.74 -120.42 M-1.74 -120.42 C-1.74 -120.42, -1.74 -120.42, -1.74 -120.42" stroke="#ff0550" stroke-width="1" fill="none"></path></g></g><mask></mask><g stroke-linecap="round"><g transform="translate(300.71240234375 537.6368795575693) rotate(0 45.62893139459197 -46.97452665306628)"><path d="M-0.94 -1.08 C14.31 -16.36, 76.52 -77.62, 92.2 -92.87" stroke="#ff0550" stroke-width="1.5" fill="none" stroke-dasharray="1.5 7"></path></g><g transform="translate(300.71240234375 537.6368795575693) rotate(0 45.62893139459197 -46.97452665306628)"><path d="M93.64 -91.45 L88.31 -79.29 L76.55 -88.71 L90.25 -92.13" stroke="none" stroke-width="0" fill="#ff0550" fill-rule="evenodd"></path><path d="M90.85 -93.96 C90.43 -87.79, 88.94 -83.57, 87.96 -77.86 M87.01 -77.87 C82.63 -81.32, 81.8 -84.02, 78.54 -86.91 M79.29 -87.5 C80.85 -90.48, 85.91 -91.19, 90.76 -92.45 M92.2 -92.87 C92.2 -92.87, 92.2 -92.87, 92.2 -92.87" stroke="#ff0550" stroke-width="1.5" fill="none"></path></g></g><mask></mask><g stroke-linecap="round"><g transform="translate(303.57568359375 537.6056295575693) rotate(0 44.42778908275068 44.62868845798073)"><path d="M0.12 -0.3 C14.95 14.44, 73.97 74.41, 88.74 89.55" stroke="#ff0550" stroke-width="1.5" fill="none" stroke-dasharray="1.5 7"></path></g><g transform="translate(303.57568359375 537.6056295575693) rotate(0 44.42778908275068 44.62868845798073)"><path d="M90.03 89.34 L72.87 84.96 L85.59 73.54 L89.72 91.12" stroke="none" stroke-width="0" fill="#ff0550" fill-rule="evenodd"></path><path d="M88.37 88.23 C84.46 86.78, 81.82 86.79, 75.77 84.19 M75.01 83.17 C78.63 82.15, 81.58 78.4, 84.91 75.13 M84.25 75.46 C85.56 78.42, 85.7 81.61, 89.49 89.18 M88.74 89.55 C88.74 89.55, 88.74 89.55, 88.74 89.55" stroke="#ff0550" stroke-width="1.5" fill="none"></path></g></g><mask></mask><g stroke-linecap="round" transform="translate(813.609375 317.8554342450693) rotate(0 139.923828125 27.658203125)"><path d="M13.83 0 M13.83 0 C98.73 -2.56, 186.39 -2.95, 266.02 0 M13.83 0 C89.55 -0.97, 164.33 -1.6, 266.02 0 M266.02 0 C275.89 0.14, 278.77 4.95, 279.85 13.83 M266.02 0 C274.84 -0.91, 280.12 3.15, 279.85 13.83 M279.85 13.83 C281.2 23.82, 278.59 36.2, 279.85 41.49 M279.85 13.83 C279.14 22.39, 279.6 31.99, 279.85 41.49 M279.85 41.49 C278.73 51.44, 276.74 55.44, 266.02 55.32 M279.85 41.49 C278.06 51.84, 275.87 55.96, 266.02 55.32 M266.02 55.32 C186.68 56.35, 106.79 54.9, 13.83 55.32 M266.02 55.32 C213.08 56.61, 160.76 55.57, 13.83 55.32 M13.83 55.32 C4 56.43, 0.22 50.39, 0 41.49 M13.83 55.32 C2.86 53.22, -1 50.08, 0 41.49 M0 41.49 C-1.12 33.32, 0.47 22.07, 0 13.83 M0 41.49 C0.96 34.12, -0.62 26.34, 0 13.83 M0 13.83 C1.77 5.46, 2.63 0.2, 13.83 0 M0 13.83 C-0.48 5.83, 4.88 0.24, 13.83 0" stroke="#ff0550" stroke-width="1" fill="none"></path></g><g transform="translate(837.5332946777344 333.0136373700693) rotate(0 115.99990844726562 12.5)"><text x="115.99990844726562" y="0" font-family="Virgil, Segoe UI Emoji" font-size="20px" fill="#ff0550" text-anchor="middle" style="white-space: pre;" direction="ltr" dominant-baseline="text-before-edge">Authentication Manager</text></g><g stroke-linecap="round" transform="translate(813.609375 509.09644987006936) rotate(0 139.923828125 27.658203125)"><path d="M13.83 0 M13.83 0 C109.5 -0.11, 202.58 -0.27, 266.02 0 M13.83 0 C110.72 -1.84, 208.84 -1.96, 266.02 0 M266.02 0 C274.16 0.34, 279.5 3.82, 279.85 13.83 M266.02 0 C275.51 -1.46, 281.7 4, 279.85 13.83 M279.85 13.83 C278.86 21.34, 280.92 27.3, 279.85 41.49 M279.85 13.83 C279.21 19.49, 279.05 27.25, 279.85 41.49 M279.85 41.49 C281.35 50.83, 273.68 56.3, 266.02 55.32 M279.85 41.49 C280.48 51.35, 275.53 57.23, 266.02 55.32 M266.02 55.32 C191.11 56.62, 117.69 56.25, 13.83 55.32 M266.02 55.32 C183.99 56.94, 101.28 57.68, 13.83 55.32 M13.83 55.32 C4.83 55, -1.52 48.88, 0 41.49 M13.83 55.32 C3.61 54.69, 0.9 51.69, 0 41.49 M0 41.49 C0.73 29.82, -0.59 19.06, 0 13.83 M0 41.49 C-0.93 34.85, 0.64 29.78, 0 13.83 M0 13.83 C-1.98 4.81, 4.19 1.06, 13.83 0 M0 13.83 C0.27 4.85, 6.31 -0.22, 13.83 0" stroke="#ff0550" stroke-width="1" fill="none"></path></g><g transform="translate(873.5332870483398 524.2546529950694) rotate(0 79.99991607666016 12.5)"><text x="79.99991607666016" y="0" font-family="Virgil, Segoe UI Emoji" font-size="20px" fill="#ff0550" text-anchor="middle" style="white-space: pre;" direction="ltr" dominant-baseline="text-before-edge">OtpAuthProvider</text></g><g stroke-linecap="round" transform="translate(813.609375 126.6144186200693) rotate(0 139.923828125 27.658203125)"><path d="M13.83 0 M13.83 0 C73.35 0.21, 134.3 2.25, 266.02 0 M13.83 0 C114.53 -0.37, 214.27 -0.29, 266.02 0 M266.02 0 C274.89 -0.79, 280.08 3.34, 279.85 13.83 M266.02 0 C277.09 -0.61, 278.1 6.25, 279.85 13.83 M279.85 13.83 C280.56 22.47, 278.4 27.25, 279.85 41.49 M279.85 13.83 C279.18 19.87, 280.49 25.25, 279.85 41.49 M279.85 41.49 C278.29 51.69, 275.78 55.88, 266.02 55.32 M279.85 41.49 C280.14 52.62, 275.03 54.66, 266.02 55.32 M266.02 55.32 C169.99 54.42, 77.35 54.61, 13.83 55.32 M266.02 55.32 C166.59 55.05, 67.75 54.46, 13.83 55.32 M13.83 55.32 C3.09 53.49, -0.87 50.16, 0 41.49 M13.83 55.32 C5.51 56.3, 2.26 49.55, 0 41.49 M0 41.49 C-0.81 31.1, -1.69 23.34, 0 13.83 M0 41.49 C1.07 33.84, -0.81 25.45, 0 13.83 M0 13.83 C-0.42 5.67, 4.84 0.21, 13.83 0 M0 13.83 C1.7 4.39, 5.47 -1.98, 13.83 0" stroke="#ff0550" stroke-width="1" fill="none"></path></g><g transform="translate(886.8832702636719 141.7726217450693) rotate(0 66.64993286132812 12.5)"><text x="66.64993286132812" y="0" font-family="Virgil, Segoe UI Emoji" font-size="20px" fill="#ff0550" text-anchor="middle" style="white-space: pre;" direction="ltr" dominant-baseline="text-before-edge">OtpAuthFilter</text></g><g stroke-linecap="round" transform="translate(1203.4599609375 126.6144186200693) rotate(0 139.923828125 27.658203125)"><path d="M13.83 0 M13.83 0 C68.78 2.45, 122.54 1.03, 266.02 0 M13.83 0 C94.34 0, 175.58 -0.46, 266.02 0 M266.02 0 C275.47 -1.27, 281.46 4.08, 279.85 13.83 M266.02 0 C273.49 1.64, 279.24 3.25, 279.85 13.83 M279.85 13.83 C278.69 22.24, 278.07 33.26, 279.85 41.49 M279.85 13.83 C280.44 19.8, 278.91 26.13, 279.85 41.49 M279.85 41.49 C280.39 51.27, 275.49 56.98, 266.02 55.32 M279.85 41.49 C279.64 50.05, 276.96 53.22, 266.02 55.32 M266.02 55.32 C194.43 54.15, 123.51 54.99, 13.83 55.32 M266.02 55.32 C199.34 56.33, 131.87 55.72, 13.83 55.32 M13.83 55.32 C3.74 54.77, 0.79 51.56, 0 41.49 M13.83 55.32 C6.87 54.16, 1.4 51.39, 0 41.49 M0 41.49 C-1.51 35.9, -0.06 25.35, 0 13.83 M0 41.49 C-1.24 34.87, -0.45 28.59, 0 13.83 M0 13.83 C0.23 4.82, 6.09 -0.19, 13.83 0 M0 13.83 C0.86 2.63, 6.46 -1.11, 13.83 0" stroke="#ff0550" stroke-width="1" fill="none"></path></g><g transform="translate(1260.2638702392578 141.7726217450693) rotate(0 83.11991882324219 12.5)"><text x="83.11991882324219" y="0" font-family="Virgil, Segoe UI Emoji" font-size="20px" fill="#ff0550" text-anchor="middle" style="white-space: pre;" direction="ltr" dominant-baseline="text-before-edge">Security Context</text></g><g stroke-linecap="round" transform="translate(1203.4599609375 413.34703580756934) rotate(0 139.923828125 27.658203125)"><path d="M13.83 0 M13.83 0 C66.53 -1.54, 116.37 -0.04, 266.02 0 M13.83 0 C91.09 -0.67, 168.73 -0.86, 266.02 0 M266.02 0 C276.85 -0.53, 278.33 6.04, 279.85 13.83 M266.02 0 C274.63 -1.36, 281.36 5.62, 279.85 13.83 M279.85 13.83 C277.78 22.81, 277.94 32.28, 279.85 41.49 M279.85 13.83 C279.28 23.63, 280.33 32.74, 279.85 41.49 M279.85 41.49 C280.1 52.37, 275.06 54.75, 266.02 55.32 M279.85 41.49 C281.57 48.61, 274.91 53.23, 266.02 55.32 M266.02 55.32 C201.21 55.24, 132.79 54.31, 13.83 55.32 M266.02 55.32 C175.65 54.24, 86.15 54.77, 13.83 55.32 M13.83 55.32 C5.4 56.17, 1.96 49.7, 0 41.49 M13.83 55.32 C6.01 56, -0.75 49.87, 0 41.49 M0 41.49 C0.06 32.4, -0.92 27.79, 0 13.83 M0 41.49 C0.07 32.54, 0.39 22.64, 0 13.83 M0 13.83 C1.48 4.42, 5.36 -1.72, 13.83 0 M0 13.83 C1.85 3.5, 6.82 1.59, 13.83 0" stroke="#ff0550" stroke-width="1" fill="none"></path></g><g transform="translate(1287.2838439941406 428.50523893256934) rotate(0 56.099945068359375 12.5)"><text x="56.099945068359375" y="0" font-family="Virgil, Segoe UI Emoji" font-size="20px" fill="#ff0550" text-anchor="middle" style="white-space: pre;" direction="ltr" dominant-baseline="text-before-edge">UserService</text></g><g stroke-linecap="round"><g transform="translate(1100.84130859375 153.2931295575693) rotate(0 48.14106520790597 -0.8265959168363821)"><path d="M0.39 0.08 C16.3 0.07, 78.97 0.29, 94.77 0.19 M-0.86 -0.92 C15.51 -1.34, 81.28 -2.07, 97.15 -1.82" stroke="#ff0550" stroke-width="1" fill="none"></path></g><g transform="translate(1100.84130859375 153.2931295575693) rotate(0 48.14106520790597 -0.8265959168363821)"><path d="M1.1 -0.29 L12.15 -5.61 L15.49 6.28 L-1.16 -1.23" stroke="none" stroke-width="0" fill="#ff0550" fill-rule="evenodd"></path><path d="M0.49 -0.72 C3.9 -1.74, 6.33 -2.82, 13.04 -5.02 M0.19 -0.36 C4.65 -1.41, 8.29 -3.95, 13.36 -6.94 M14.46 -5.28 C13.96 -3.92, 14.5 0.71, 14.33 6.61 M14.47 -6.81 C13.88 -1.95, 13.73 3.65, 13.82 7.04 M14.81 6.61 C9.32 3.19, 3.75 1.59, -0.02 0.67 M14.43 6.67 C9.01 3.92, 4.45 1.41, 1.07 0.02 M0.39 0.08 C0.39 0.08, 0.39 0.08, 0.39 0.08 M0.39 0.08 C0.39 0.08, 0.39 0.08, 0.39 0.08" stroke="#ff0550" stroke-width="1" fill="none"></path></g><g transform="translate(1100.84130859375 153.2931295575693) rotate(0 48.14106520790597 -0.8265959168363821)"><path d="M97.86 -2.2 L81.7 5.15 L85.07 -8.33 L95.6 -3.13" stroke="none" stroke-width="0" fill="#ff0550" fill-rule="evenodd"></path><path d="M97.25 -2.63 C94.14 -0.51, 90.03 1.45, 82.6 5.73 M96.95 -2.27 C93.87 0.34, 90.07 1.27, 82.91 3.81 M84.02 5.47 C83.74 0.24, 84.28 -1.72, 83.91 -8 M84.03 3.94 C83.47 -0.91, 83.33 -5.03, 83.39 -7.57 M84.39 -7.99 C87.73 -7.18, 91.04 -4.63, 96.74 -1.23 M84.01 -7.94 C88.03 -6.19, 92.78 -4.35, 97.82 -1.88 M97.15 -1.82 C97.15 -1.82, 97.15 -1.82, 97.15 -1.82 M97.15 -1.82 C97.15 -1.82, 97.15 -1.82, 97.15 -1.82" stroke="#ff0550" stroke-width="1" fill="none"></path></g></g><mask></mask><g stroke-linecap="round"><g transform="translate(859.66552734375 189.5470358075693) rotate(0 -0.5642276105254496 59.0867305167485)"><path d="M0.08 -0.65 C0.07 18.85, 0.3 97.66, 0.2 117.39 M-1.33 1.63 C-1.5 21.28, -0.61 99.24, -0.64 118.82" stroke="#ff0550" stroke-width="1" fill="none"></path></g><g transform="translate(859.66552734375 189.5470358075693) rotate(0 -0.5642276105254496 59.0867305167485)"><path d="M-1.01 116.97 L-6.43 106.78 L5.45 103.64 L-1.95 119.04" stroke="none" stroke-width="0" fill="#ff0550" fill-rule="evenodd"></path><path d="M-1.45 119.07 C-3 113.88, -4.63 109.16, -5.85 104.86 M-1.08 119.31 C-1.84 116.17, -4.09 112.09, -7.77 104.96 M-6.11 105.34 C-5.34 105.82, -1.3 105.54, 5.79 106.24 M-7.63 105.17 C-3.94 104.91, 0.49 104.97, 6.22 105.36 M5.79 104.95 C2.79 107.46, 1.61 112.03, -0.05 119.46 M5.85 104.94 C2.79 110.5, -0.04 116.76, -0.7 118.31 M-0.64 118.82 C-0.64 118.82, -0.64 118.82, -0.64 118.82 M-0.64 118.82 C-0.64 118.82, -0.64 118.82, -0.64 118.82" stroke="#ff0550" stroke-width="1" fill="none"></path></g></g><mask></mask><g stroke-linecap="round"><g transform="translate(859.85302734375 384.1720358075693) rotate(0 0.5404262568802096 58.30787832748143)"><path d="M-0.65 0.2 C-0.42 19.53, 1.27 96.8, 1.73 116.06 M1.22 -0.74 C1.23 18.75, 0.64 97.78, 0.67 117.35" stroke="#ff0550" stroke-width="1" fill="none"></path></g><g transform="translate(859.85302734375 384.1720358075693) rotate(0 0.5404262568802096 58.30787832748143)"><path d="M-1.18 117.98 L-4.1 103.56 L5.51 102.47 L0.89 115.54" stroke="none" stroke-width="0" fill="#ff0550" fill-rule="evenodd"></path><path d="M0.92 117.09 C-2.03 112.97, -4.48 109.47, -6.02 102.6 M1.16 117.68 C-1.23 111.78, -4.61 106.49, -5.92 103.09 M-5.54 102.75 C-1.9 104, 0.92 103.82, 8.11 103.67 M-5.71 103.16 C-2.41 104.03, 1.11 104.47, 7.23 103.56 M6.82 102.64 C4.04 106.79, 3.28 111.69, 1.31 118.82 M6.81 103.51 C5.39 106.58, 4.63 110.52, 0.16 116.92 M0.67 117.35 C0.67 117.35, 0.67 117.35, 0.67 117.35 M0.67 117.35 C0.67 117.35, 0.67 117.35, 0.67 117.35" stroke="#ff0550" stroke-width="1" fill="none"></path></g></g><mask></mask><g stroke-linecap="round"><g transform="translate(1037.85693359375 498.9571920575693) rotate(0 -0.8163703500564452 -56.71921967007222)"><path d="M0.2 -0.21 C0.11 -18.97, -0.31 -94.53, -0.48 -113.23 M-1.15 -1.36 C-1.45 -19.85, -2.15 -92.81, -1.67 -111.62" stroke="#ff0550" stroke-width="1" fill="none"></path></g><g transform="translate(1037.85693359375 498.9571920575693) rotate(0 -0.8163703500564452 -56.71921967007222)"><path d="M-1.05 -110.1 L4.42 -99.54 L-9.4 -97.84 L-3.48 -109.74" stroke="none" stroke-width="0" fill="#ff0550" fill-rule="evenodd"></path><path d="M-1.93 -112.21 C0.35 -108.4, 3.31 -103.66, 3.45 -96.92 M-1.34 -111.22 C-0.52 -108.57, 0.96 -104.51, 3.94 -98.41 M3.61 -97.37 C0.67 -97.65, -3.78 -96.98, -8.2 -98.42 M4.02 -98.23 C0.01 -98.19, -4.32 -97.89, -8.31 -98.25 M-9.22 -99.43 C-6.47 -103.28, -2.95 -107.06, -0.2 -112.37 M-8.36 -98.21 C-6.42 -102.25, -3.56 -108.33, -2.1 -110.95 M-1.67 -111.62 C-1.67 -111.62, -1.67 -111.62, -1.67 -111.62 M-1.67 -111.62 C-1.67 -111.62, -1.67 -111.62, -1.67 -111.62" stroke="#ff0550" stroke-width="1" fill="none"></path></g></g><mask></mask><g stroke-linecap="round"><g transform="translate(1038.61865234375 310.6993795575693) rotate(0 -0.817681775484175 -61.715194055065496)"><path d="M-0.21 -0.48 C-0.08 -21, -0.06 -102.62, 0.14 -122.96 M-1.78 -1.77 C-1.73 -22.18, -1.15 -101.89, -0.73 -121.82" stroke="#ff0550" stroke-width="1" fill="none"></path></g><g transform="translate(1038.61865234375 310.6993795575693) rotate(0 -0.817681775484175 -61.715194055065496)"><path d="M0.78 -121.99 L3.88 -109.45 L-7.03 -110.12 L1.15 -120.15" stroke="none" stroke-width="0" fill="#ff0550" fill-rule="evenodd"></path><path d="M-1.33 -121.64 C-0.15 -117.23, 1.93 -116.21, 6.5 -108.54 M-0.33 -122.3 C0.2 -119.27, 2.02 -115.91, 5.01 -107.87 M6.05 -107.8 C1.03 -108.14, -3.02 -108.48, -7.61 -107.36 M5.19 -107.98 C2.62 -107.7, 0.3 -108.55, -7.44 -107.95 M-8.62 -108.96 C-5.61 -111.87, -2.53 -115.19, -1.49 -120.91 M-7.4 -108.91 C-4.38 -112.8, -3.42 -117.62, -0.07 -121.5 M-0.73 -121.82 C-0.73 -121.82, -0.73 -121.82, -0.73 -121.82 M-0.73 -121.82 C-0.73 -121.82, -0.73 -121.82, -0.73 -121.82" stroke="#ff0550" stroke-width="1" fill="none"></path></g></g><mask></mask><g stroke-linecap="round"><g transform="translate(1104.32177734375 537.8087545575693) rotate(0 45.91468875743453 -45.980864879861485)"><path d="M-0.48 0.14 C14.88 -15.18, 76.77 -76.42, 92.3 -92.1" stroke="#ff0550" stroke-width="1.5" fill="none" stroke-dasharray="1.5 7"></path></g><g transform="translate(1104.32177734375 537.8087545575693) rotate(0 45.91468875743453 -45.980864879861485)"><path d="M91.98 -93.62 L85.33 -78.88 L77.66 -86.2 L93.16 -90.14" stroke="none" stroke-width="0" fill="#ff0550" fill-rule="evenodd"></path><path d="M92.48 -93.06 C91.86 -88.05, 87.88 -82.12, 86.76 -78.9 M86.35 -79.09 C82.64 -81.75, 79.47 -85.24, 78.67 -86.03 M78.61 -86.56 C82.76 -87.38, 86.75 -90.62, 93.43 -93.47 M92.3 -92.1 C92.3 -92.1, 92.3 -92.1, 92.3 -92.1" stroke="#ff0550" stroke-width="1.5" fill="none"></path></g></g><mask></mask><g stroke-linecap="round"><g transform="translate(152.79222459367884 115.0118795575693) rotate(0 401.1364060635519 -51.45218995689077)"><path d="M-0.59 0.81 C108.97 -16.74, 523.98 -105.23, 657.88 -105.01 C791.79 -104.8, 778.76 -15.89, 802.86 2.11" stroke="#ff0550" stroke-width="1.5" fill="none" stroke-dasharray="1.5 7"></path></g><g transform="translate(152.79222459367884 115.0118795575693) rotate(0 401.1364060635519 -51.45218995689077)"><path d="M802.94 3.29 L792.59 -7.77 L802.01 -13.38 L801.75 0.82" stroke="none" stroke-width="0" fill="#ff0550" fill-rule="evenodd"></path><path d="M803.88 3.14 C799.37 -1.99, 794.73 -5.56, 792.07 -5.83 M791.66 -7.72 C794.78 -7.51, 795.11 -8.71, 801.58 -12.19 M801.12 -13.53 C801.44 -9.93, 802.59 -3.56, 801.42 1.61 M802.86 2.11 C802.86 2.11, 802.86 2.11, 802.86 2.11" stroke="#ff0550" stroke-width="1.5" fill="none"></path></g></g><mask></mask></svg>